<svg version="1.1" id="Layer_1" xmlns="http://www.w3.org/2000/svg" xmlns:xlink="http://www.w3.org/1999/xlink" x="0px" y="0px" width="100%" viewBox="0 0 2000 1500" enable-background="new 0 0 2000 1500" xml:space="preserve">
  <path fill="#000000" opacity="1.000000" stroke="none" d="
M1010.000000,1501.000000 
	C673.333435,1501.000000 337.166870,1501.000000 1.000226,1501.000000 
	C1.000150,1001.000244 1.000150,501.000488 1.000075,1.000561 
	C667.666199,1.000374 1334.332397,1.000374 2000.999023,1.000187 
	C2000.999268,500.999390 2000.999268,1000.998779 2000.999634,1500.999023 
	C1670.833374,1501.000000 1340.666626,1501.000000 1010.000000,1501.000000 
M930.664124,702.500183 
	C930.664124,610.431335 930.664124,518.362488 930.664124,425.460968 
	C941.437256,425.460968 951.651794,425.460968 961.801086,425.460968 
	C961.801086,417.520294 961.801086,410.415802 961.801086,403.226685 
	C905.354614,403.226685 849.136169,403.226685 792.951294,403.226685 
	C792.951294,410.718628 792.951294,417.940125 792.951294,425.786865 
	C803.427979,425.786865 813.533325,425.786865 823.803833,425.786865 
	C823.803833,554.146362 823.803833,681.867065 823.803833,810.383667 
	C813.395081,810.383667 803.163025,810.383667 792.911133,810.383667 
	C792.911133,818.400146 792.911133,825.616150 792.911133,832.684937 
	C849.472595,832.684937 905.698181,832.684937 961.812500,832.684937 
	C961.812500,825.213562 961.812500,818.096680 961.812500,810.215576 
	C951.349304,810.215576 941.089294,810.215576 930.664124,810.215576 
	C930.664124,774.130249 930.664124,738.815247 930.664124,702.500183 
M1050.688965,402.962830 
	C1049.805542,403.594116 1048.172485,404.204376 1048.154297,404.859833 
	C1047.965698,411.596893 1048.038574,418.341248 1048.038574,425.847809 
	C1058.714478,425.847809 1068.753296,425.847809 1079.578247,425.847809 
	C1078.304810,427.674713 1077.667725,428.604950 1077.014282,429.523590 
	C1032.638794,491.907990 988.288696,554.310364 943.817505,616.626404 
	C941.244934,620.231323 940.552551,622.770203 943.044189,627.033386 
	C977.603760,686.164429 1011.909851,745.443604 1046.276123,804.687622 
	C1047.221191,806.316895 1048.146118,807.958008 1049.630615,810.556885 
	C1038.369385,810.556885 1028.270630,810.556885 1018.288330,810.556885 
	C1018.288330,818.445557 1018.288330,825.681824 1018.288330,832.706421 
	C1084.864258,832.706421 1151.095337,832.706421 1217.380371,832.706421 
	C1217.380371,825.282654 1217.380371,818.192261 1217.380371,810.023682 
	C1208.192017,810.023682 1199.235229,809.906738 1190.284546,810.089539 
	C1187.302246,810.150330 1185.559326,809.236511 1183.872437,806.677307 
	C1131.233032,726.810791 1078.498169,647.007324 1025.787720,567.187622 
	C1025.093140,566.135742 1024.525513,565.000061 1023.945496,563.985535 
	C1024.522827,563.339722 1024.833008,562.945618 1025.189941,562.599915 
	C1071.392334,517.858093 1117.581787,473.103149 1163.877075,428.457672 
	C1165.336670,427.050079 1167.869995,426.123932 1169.928467,426.075928 
	C1180.189697,425.836670 1190.459595,425.966583 1200.711060,425.966583 
	C1200.711060,417.610962 1200.711060,410.500854 1200.711060,402.962311 
	C1150.885864,402.962311 1101.273315,402.962311 1050.688965,402.962830 
M634.532776,1066.055176 
	C632.022888,1061.170532 628.076721,1061.111572 624.925354,1066.124390 
	C621.207031,1072.039185 617.590637,1078.029053 614.215881,1084.144165 
	C612.685669,1086.916992 610.912659,1087.875610 607.668884,1088.251465 
	C596.786255,1089.513062 585.965210,1091.342651 575.155396,1093.161621 
	C573.208130,1093.489380 571.425720,1094.796387 569.567139,1095.651245 
	C569.653503,1096.157349 569.739868,1096.663452 569.826233,1097.169556 
	C582.009338,1101.258057 594.492554,1098.760864 607.080322,1096.946045 
	C605.035583,1103.759155 603.505188,1109.668335 601.420776,1115.375366 
	C600.666687,1117.439819 598.948364,1119.877808 597.050720,1120.679565 
	C585.580811,1125.525024 574.084839,1130.401001 562.295837,1134.370605 
	C552.093018,1137.806152 541.393250,1139.306274 528.772339,1139.040771 
	C531.734680,1133.930664 533.958008,1129.821899 536.440308,1125.875977 
	C540.419189,1119.551025 545.143738,1113.626831 548.519531,1107.006348 
	C554.295349,1095.678833 558.495239,1083.688599 558.051086,1070.708374 
	C557.966125,1068.226074 556.473938,1064.514404 554.632202,1063.737549 
	C552.873901,1062.995850 548.906250,1064.641479 547.496338,1066.464600 
	C543.466736,1071.675415 539.138245,1077.105591 536.917419,1083.177368 
	C531.045105,1099.232544 525.671631,1115.521973 521.192139,1132.014893 
	C518.551941,1141.736084 517.650085,1151.985596 516.576721,1162.062500 
	C514.991272,1176.948608 513.836853,1191.884277 512.748718,1206.817139 
	C512.450317,1210.911621 512.253601,1215.639038 516.526489,1218.009888 
	C521.020264,1220.503540 524.914917,1217.532837 528.433655,1215.100830 
	C537.489258,1208.841797 545.269043,1201.011475 549.624268,1190.973267 
	C555.948303,1176.397095 557.933411,1161.654175 544.662476,1149.066040 
	C544.379944,1148.797974 544.394287,1148.216919 544.188721,1147.496948 
	C563.839966,1143.762939 582.580383,1137.854248 600.707947,1127.380371 
	C600.707947,1130.712891 600.684814,1133.139404 600.712280,1135.565430 
	C600.797424,1143.088745 604.394775,1147.325439 611.968933,1148.083740 
	C615.215759,1148.408691 618.805908,1148.447632 621.817078,1147.400391 
	C631.277222,1144.110596 640.536499,1140.243530 649.884583,1136.595581 
	C649.884583,1136.599487 649.843445,1137.692627 649.891174,1138.781738 
	C650.223633,1146.369385 653.889282,1149.437622 661.263000,1147.857666 
	C664.141113,1147.241089 667.190308,1146.251221 669.543762,1144.567627 
	C678.178711,1138.390625 686.557434,1131.855225 695.022522,1125.441528 
	C696.094238,1124.629517 697.106506,1123.738892 698.204651,1122.836670 
	C699.390320,1128.625244 699.982605,1133.959473 701.625977,1138.947388 
	C703.896606,1145.839233 706.678345,1147.315796 713.666077,1146.024902 
	C717.054504,1145.398926 720.540466,1144.419922 723.555786,1142.804565 
	C738.427185,1134.837402 747.058411,1122.006348 750.846680,1105.877075 
	C751.714539,1102.182007 753.243103,1101.376709 756.746094,1100.830688 
	C764.555969,1099.613159 772.293945,1097.771973 779.935181,1095.716309 
	C783.004089,1094.890869 786.186462,1092.638794 784.380493,1088.765503 
	C782.620728,1084.991211 779.461304,1086.778442 776.628662,1087.975220 
	C773.142456,1089.448120 769.646912,1091.306030 765.983276,1091.860596 
	C759.799438,1092.796997 753.755249,1092.294678 749.027527,1086.999268 
	C748.016541,1085.866821 744.942444,1085.219360 743.773926,1085.926758 
	C742.299377,1086.819214 741.623718,1089.266846 740.959473,1091.167969 
	C740.602478,1092.189941 740.932373,1093.478149 741.051270,1094.636108 
	C742.835815,1112.013184 733.997742,1124.070679 721.190613,1134.065308 
	C719.807861,1135.144409 717.889343,1135.548218 716.203552,1136.226196 
	C712.370300,1137.767822 710.136780,1135.939331 710.217896,1132.335571 
	C710.377441,1125.254761 710.719666,1118.112183 711.877380,1111.143188 
	C712.625977,1106.636597 714.972473,1102.398682 716.571777,1098.028931 
	C717.670288,1095.027344 716.759155,1092.225464 713.830078,1091.632324 
	C712.038696,1091.269775 708.721069,1092.635132 707.899353,1094.184448 
	C698.799866,1111.342163 685.115112,1123.933472 668.998901,1134.181274 
	C666.415222,1135.824097 663.546997,1137.019409 659.411987,1139.137939 
	C660.257568,1134.541748 660.389648,1131.345581 661.451416,1128.495605 
	C665.389160,1117.925415 669.601685,1107.456665 673.782837,1096.978516 
	C674.914917,1094.141357 675.701294,1090.787354 672.510315,1089.655273 
	C670.601624,1088.978149 666.593567,1090.355591 665.463745,1092.078247 
	C662.220032,1097.024292 658.797119,1102.366211 657.585022,1108.012207 
	C655.705566,1116.766724 650.791870,1122.931030 644.212646,1128.020142 
	C635.962341,1134.401855 626.933167,1139.481201 616.023071,1139.057007 
	C614.299438,1138.989868 611.290466,1136.949707 611.189392,1135.642944 
	C610.252502,1123.526611 612.028198,1111.753174 617.224243,1100.651489 
	C618.687866,1097.524414 621.193970,1096.657104 624.664429,1097.179199 
	C627.529053,1097.610107 630.599304,1097.570679 633.423889,1096.989136 
	C634.805908,1096.704346 636.638611,1094.812500 636.807434,1093.465088 
	C636.987549,1092.027466 635.830078,1089.811768 634.565186,1088.945801 
	C632.642700,1087.629517 630.124084,1087.184082 627.854492,1086.367310 
	C630.123718,1079.886841 632.416382,1073.339600 634.532776,1066.055176 
M1360.026367,1093.026733 
	C1358.738037,1094.866455 1356.888428,1096.532471 1356.255859,1098.575195 
	C1353.082153,1108.823364 1350.226807,1119.170288 1347.570190,1128.403442 
	C1335.181763,1131.920532 1322.685059,1135.468506 1310.103149,1139.040649 
	C1310.606201,1128.585083 1312.342163,1117.717651 1317.795532,1107.652466 
	C1320.165894,1103.277344 1322.368774,1098.787720 1324.259888,1094.190674 
	C1324.861328,1092.728394 1324.791992,1090.433960 1324.041382,1089.060181 
	C1318.239014,1078.437622 1294.551147,1068.672485 1283.121948,1082.657959 
	C1277.729614,1089.256348 1273.437134,1096.912964 1269.601685,1104.568726 
	C1267.009033,1109.743896 1265.038208,1114.723511 1260.360107,1118.830078 
	C1252.656860,1125.592407 1244.964355,1132.101318 1235.275024,1135.699707 
	C1231.809937,1136.986450 1228.065308,1137.520020 1223.390259,1138.654053 
	C1223.945190,1131.607056 1224.004761,1125.624268 1224.976440,1119.793579 
	C1226.287109,1111.929321 1228.406982,1104.203491 1229.970459,1096.376587 
	C1230.871704,1091.864990 1230.093994,1087.630859 1225.976440,1084.838013 
	C1221.953369,1082.109253 1217.728760,1082.574097 1213.722656,1084.923706 
	C1211.882080,1086.003296 1210.262939,1087.484619 1208.624146,1088.878662 
	C1205.520508,1091.518921 1202.475342,1094.227539 1198.589478,1097.620605 
	C1198.589478,1093.839111 1198.472900,1091.213623 1198.618164,1088.602661 
	C1198.812866,1085.103149 1197.228882,1083.422852 1193.814209,1082.938965 
	C1189.847290,1082.376953 1189.534668,1085.045166 1189.175659,1087.772339 
	C1187.763916,1098.490479 1186.478516,1109.226685 1184.924072,1119.923950 
	C1183.799805,1127.660522 1182.313721,1135.344360 1181.011841,1143.055542 
	C1180.554321,1145.765991 1180.659790,1148.268433 1184.312378,1148.328979 
	C1187.493286,1148.381836 1191.253906,1149.483154 1191.923096,1144.377075 
	C1192.484741,1140.091431 1193.226440,1135.822021 1194.071167,1131.581909 
	C1196.553467,1119.122681 1201.338257,1107.686890 1210.118896,1098.326050 
	C1212.290527,1096.010986 1215.517578,1094.685669 1218.259399,1092.905273 
	C1218.794312,1093.319336 1219.329346,1093.733276 1219.864380,1094.147217 
	C1219.083984,1098.998657 1218.283325,1103.846802 1217.527588,1108.702026 
	C1216.023193,1118.366821 1213.898193,1127.993164 1213.260986,1137.716187 
	C1212.764282,1145.294189 1217.331787,1148.597778 1224.904907,1147.326538 
	C1240.500366,1144.708374 1253.705078,1137.486572 1264.496094,1125.885864 
	C1269.219849,1134.449585 1272.218018,1136.219360 1281.678711,1134.860352 
	C1285.393311,1134.326660 1288.985962,1132.750488 1292.549683,1131.422485 
	C1295.282104,1130.403931 1297.882080,1129.029663 1301.400269,1127.420532 
	C1300.871826,1131.976318 1300.341064,1135.572266 1300.061768,1139.187622 
	C1299.627197,1144.813721 1297.326050,1149.045532 1293.494263,1153.531006 
	C1276.601196,1173.305542 1268.847534,1196.580444 1270.226318,1222.602661 
	C1270.409302,1226.058838 1272.066040,1230.871582 1274.635986,1232.438232 
	C1278.728516,1234.932861 1283.798096,1233.032349 1287.531738,1229.821411 
	C1290.153564,1227.566650 1292.648560,1224.973755 1294.541992,1222.098389 
	C1300.034790,1213.756470 1302.993652,1204.434937 1303.991089,1194.516479 
	C1305.257446,1181.924438 1306.334839,1169.312622 1307.735229,1156.736084 
	C1307.951904,1154.791138 1308.955200,1152.216064 1310.448364,1151.244995 
	C1322.179565,1143.614868 1335.195435,1139.619141 1348.992920,1138.167480 
	C1352.520630,1147.961792 1355.135864,1149.825073 1364.679077,1147.920166 
	C1380.250244,1144.812500 1392.059570,1134.749756 1404.080078,1125.337402 
	C1405.220337,1124.444702 1405.300171,1120.151489 1404.202759,1118.896118 
	C1402.240723,1116.651123 1399.229370,1116.854370 1396.788208,1119.393677 
	C1389.064575,1127.428223 1379.786743,1133.227173 1369.539185,1137.397705 
	C1366.526367,1138.624023 1363.072144,1138.765625 1360.203125,1139.329102 
	C1359.569336,1135.159546 1358.650024,1132.135254 1358.780396,1129.156982 
	C1358.923340,1125.893799 1359.817017,1122.606445 1360.781006,1119.450928 
	C1361.944336,1115.643066 1363.783691,1112.034668 1364.847778,1108.205688 
	C1365.770752,1104.884766 1366.364502,1101.387329 1366.470825,1097.948364 
	C1366.578003,1094.480347 1364.828979,1092.216919 1360.026367,1093.026733 
M1583.971924,1089.397705 
	C1583.984497,1088.064453 1584.015625,1086.730957 1584.006836,1085.397827 
	C1583.945557,1076.138916 1580.191284,1073.669312 1571.625977,1077.327148 
	C1570.264404,1077.908569 1568.585083,1078.539551 1567.854004,1079.667236 
	C1564.471558,1084.884399 1560.590454,1089.981445 1558.371704,1095.697510 
	C1555.683838,1102.621826 1554.549683,1110.141968 1552.584106,1117.360840 
	C1552.246582,1118.600342 1551.315918,1119.866821 1550.309570,1120.697144 
	C1548.084473,1122.533203 1545.095581,1123.670532 1543.369507,1125.847046 
	C1533.570557,1138.204102 1520.184204,1140.621704 1505.696533,1139.642456 
	C1499.889160,1139.249878 1496.552002,1134.369507 1498.179199,1129.022949 
	C1498.875977,1126.733398 1501.059570,1124.654541 1503.023682,1123.032104 
	C1515.487305,1112.736206 1522.489258,1100.061768 1521.173462,1083.447021 
	C1520.651611,1076.858887 1518.192383,1074.817627 1511.786377,1076.424072 
	C1502.987671,1078.630493 1498.805786,1085.356201 1496.282349,1093.232422 
	C1494.154663,1099.873413 1492.783691,1106.753540 1490.889038,1113.474731 
	C1490.321655,1115.487427 1489.524536,1117.702393 1488.140259,1119.173096 
	C1480.729980,1127.046387 1472.011719,1133.083008 1461.655762,1136.442627 
	C1458.782715,1137.374756 1455.689331,1137.627930 1451.374390,1138.442261 
	C1452.486328,1129.825928 1453.204224,1122.420898 1454.457397,1115.107544 
	C1455.551514,1108.722412 1457.312012,1102.453979 1458.657227,1096.108398 
	C1459.553345,1091.881104 1458.518433,1088.073608 1455.132446,1085.288330 
	C1451.711426,1082.474365 1447.717041,1082.326538 1443.846680,1084.169678 
	C1441.638306,1085.221313 1439.633301,1086.803589 1437.739136,1088.388794 
	C1434.380859,1091.199341 1431.177002,1094.194214 1427.055420,1097.873535 
	C1427.055420,1093.568481 1426.985107,1090.614624 1427.073364,1087.665283 
	C1427.182129,1084.037964 1424.830566,1083.273682 1421.937744,1082.953125 
	C1418.672363,1082.591187 1418.250854,1084.565430 1417.875732,1087.191650 
	C1415.242798,1105.628784 1412.509399,1124.052002 1409.685791,1142.460938 
	C1409.240845,1145.362793 1408.725464,1148.018921 1412.710205,1148.286621 
	C1416.090942,1148.513550 1419.981689,1149.454102 1420.486572,1144.030029 
	C1420.778687,1140.889893 1421.490479,1137.788696 1422.016479,1134.670410 
	C1424.243774,1121.463745 1429.012817,1109.353394 1437.834839,1099.117798 
	C1440.360840,1096.186890 1443.191284,1093.255127 1448.682861,1093.861084 
	C1447.577515,1100.016113 1446.373535,1105.838257 1445.513672,1111.710693 
	C1444.171387,1120.876953 1442.495605,1130.050537 1442.057373,1139.273193 
	C1441.774170,1145.237793 1446.081055,1148.290039 1452.072021,1147.481445 
	C1456.324097,1146.907349 1460.729370,1146.119507 1464.605591,1144.393066 
	C1472.433228,1140.906494 1479.947388,1136.716187 1487.676392,1132.772339 
	C1488.804565,1141.330200 1494.254150,1146.401245 1503.081787,1147.787720 
	C1506.508057,1148.325928 1510.089600,1148.582153 1513.525146,1148.231201 
	C1527.119507,1146.842407 1539.661255,1142.671387 1550.330078,1132.533813 
	C1552.499390,1144.882324 1561.047485,1148.041748 1571.324707,1148.320923 
	C1583.817017,1148.660156 1594.860107,1144.100952 1605.964355,1138.660645 
	C1617.818359,1132.853027 1623.179321,1123.257324 1626.188477,1111.400391 
	C1626.554810,1109.957153 1627.001587,1108.485962 1627.705688,1107.187378 
	C1629.026733,1104.751221 1630.563477,1102.431885 1632.050537,1099.998291 
	C1636.475708,1102.125732 1640.270874,1104.235840 1644.280884,1105.792358 
	C1647.838623,1107.173462 1648.171753,1109.317139 1646.944580,1112.417236 
	C1645.047363,1117.209351 1643.223511,1122.030518 1641.373657,1126.841309 
	C1639.414062,1131.938354 1639.675049,1136.998291 1641.992310,1141.869019 
	C1643.963013,1146.011230 1647.209229,1148.671021 1651.998169,1147.334106 
	C1668.266113,1142.792603 1682.855713,1135.015503 1695.330078,1123.574219 
	C1697.008179,1122.035034 1697.589233,1119.299805 1698.678223,1117.118530 
	C1698.183594,1116.553955 1697.688843,1115.989380 1697.194092,1115.424683 
	C1694.609619,1116.388672 1691.823486,1117.006592 1689.475830,1118.376221 
	C1679.190063,1124.376343 1669.109863,1130.732056 1658.766602,1136.628052 
	C1656.429810,1137.960083 1653.337280,1137.966919 1650.075195,1138.699951 
	C1650.075195,1136.181763 1649.911987,1134.846191 1650.101074,1133.562500 
	C1651.530273,1123.857544 1653.087280,1114.171265 1654.486450,1104.462158 
	C1655.574463,1096.913330 1653.801514,1093.718872 1646.688843,1090.852905 
	C1641.760376,1088.866943 1636.393677,1087.811279 1631.728760,1085.372437 
	C1626.879517,1082.837158 1625.024658,1085.188843 1623.524414,1088.915039 
	C1622.793335,1090.730835 1622.135742,1092.838257 1622.332642,1094.720825 
	C1623.203857,1103.050171 1619.572876,1110.197388 1616.668091,1117.520508 
	C1616.142456,1118.845337 1614.698608,1119.922485 1613.467407,1120.826050 
	C1611.038696,1122.608521 1607.841675,1123.693481 1606.049683,1125.935791 
	C1596.198608,1138.261963 1582.799805,1140.614502 1568.331421,1139.643799 
	C1562.543213,1139.255493 1559.339844,1134.333984 1560.983032,1128.917969 
	C1561.635620,1126.767456 1563.637695,1124.804077 1565.457520,1123.266968 
	C1575.752563,1114.570068 1583.279053,1104.395996 1583.971924,1089.397705 
M909.027344,1147.337402 
	C922.862732,1143.980469 934.633240,1136.239380 946.862610,1128.869995 
	C947.188416,1140.816895 952.414429,1146.734497 963.626892,1147.985596 
	C978.342163,1149.627686 991.618530,1145.347778 1003.758606,1137.327759 
	C1006.173828,1135.732178 1008.690308,1133.354126 1009.670654,1130.771362 
	C1010.768738,1127.878540 1010.173645,1124.343140 1010.315247,1121.087280 
	C1007.758362,1122.560303 1004.459595,1123.449951 1002.767029,1125.602539 
	C993.016968,1138.002075 979.679932,1140.519287 965.186523,1139.714966 
	C959.338501,1139.390503 955.833801,1134.702271 957.206665,1129.382690 
	C957.764282,1127.222168 959.675354,1125.110352 961.499084,1123.625610 
	C974.143799,1113.330811 981.502686,1100.656860 980.372192,1083.835815 
	C979.892029,1076.690796 977.285583,1074.664429 970.348877,1076.592773 
	C961.597839,1079.025269 957.727356,1085.965820 955.201233,1093.775879 
	C953.209229,1099.934692 952.013306,1106.347412 950.158386,1112.556152 
	C949.588440,1114.463745 948.388306,1116.589111 946.828674,1117.724487 
	C939.987061,1122.704956 933.205383,1127.901489 925.817688,1131.954590 
	C920.224060,1135.023315 914.439636,1138.761597 906.790222,1138.090088 
	C907.053528,1133.791748 907.038513,1129.810547 907.592041,1125.909912 
	C908.643311,1118.501465 910.261841,1111.169434 911.193604,1103.749023 
	C912.131042,1096.282959 910.351074,1093.573608 903.259216,1090.764893 
	C898.163757,1088.746704 892.751892,1087.442139 887.839905,1085.074707 
	C884.302124,1083.369629 882.393433,1084.394897 881.124023,1087.348267 
	C880.096130,1089.739502 879.079224,1092.435303 879.172852,1094.954712 
	C879.505615,1103.913940 876.225403,1111.765015 872.298035,1119.428345 
	C871.451294,1121.080566 869.828613,1122.699829 868.162598,1123.507080 
	C859.036133,1127.929199 849.819092,1132.171021 840.548157,1136.283203 
	C838.636108,1137.131348 836.375366,1137.246460 834.254639,1137.559082 
	C830.315125,1138.139648 828.468933,1136.171509 829.038269,1132.426636 
	C830.035156,1125.870239 831.640869,1119.400024 832.485474,1112.828613 
	C833.366272,1105.975952 834.614380,1098.953003 833.956665,1092.173706 
	C833.076538,1083.102905 827.589050,1079.653687 818.605896,1080.641602 
	C799.993530,1082.688477 783.325073,1097.048096 779.370911,1116.157837 
	C777.803406,1123.732910 779.164368,1131.935425 779.363098,1139.848022 
	C779.532227,1146.584961 782.755371,1149.928833 789.155884,1148.035645 
	C796.340210,1145.910522 803.081787,1142.115112 809.782654,1138.601318 
	C813.185242,1136.817017 816.075195,1134.055176 819.460815,1131.539062 
	C821.103577,1145.939087 826.075317,1149.496094 839.540039,1145.333618 
	C846.947266,1143.043823 853.915833,1139.342163 861.103271,1136.327271 
	C862.411560,1135.778564 863.809265,1135.425049 865.187561,1135.065430 
	C867.012634,1134.589233 869.220642,1134.698975 870.636292,1133.682617 
	C878.176514,1128.269409 880.214905,1119.693481 883.027710,1111.522339 
	C884.392578,1107.557617 886.471802,1103.838989 888.341370,1099.760864 
	C893.082642,1102.040283 896.705383,1104.067017 900.539551,1105.545288 
	C904.374268,1107.023682 905.067627,1109.281616 903.623474,1112.869141 
	C901.513489,1118.110352 899.387146,1123.361084 897.640930,1128.729004 
	C895.004822,1136.833008 899.454590,1149.228027 909.027344,1147.337402 
M407.547180,1053.480835 
	C407.562286,1051.101074 407.137177,1048.617554 407.669861,1046.359985 
	C409.801819,1037.324097 412.733002,1028.450806 414.405151,1019.340454 
	C415.982788,1010.744568 415.313782,1002.020264 411.365479,993.947144 
	C406.793304,984.598267 396.519440,982.569946 389.073517,989.826965 
	C386.444000,992.389709 384.149414,995.893066 383.123047,999.384766 
	C380.676941,1007.706543 381.108643,1016.222412 384.337433,1024.348633 
	C387.343994,1031.915405 390.388428,1039.504272 394.062164,1046.756104 
	C396.654541,1051.873535 395.806488,1056.074097 392.503937,1060.065552 
	C384.674316,1069.528076 376.610260,1078.796875 368.807831,1088.281250 
	C366.637909,1090.918945 364.816437,1090.645508 362.038055,1089.289062 
	C353.826477,1085.280151 345.520813,1081.438354 337.097626,1077.898315 
	C332.056183,1075.779663 328.878113,1078.641235 329.916504,1084.006470 
	C330.192200,1085.430908 330.984833,1086.771729 331.635071,1088.104492 
	C335.622253,1096.277100 339.636719,1104.436401 344.024811,1113.380127 
	C337.128754,1117.703979 330.549713,1121.833130 323.966339,1125.955566 
	C319.597137,1128.691406 315.029266,1131.167969 310.967560,1134.301392 
	C309.761475,1135.231812 309.970886,1137.996948 309.531769,1139.921509 
	C311.503937,1140.341553 313.497925,1141.153442 315.440552,1141.045044 
	C316.752380,1140.971924 318.006836,1139.624878 319.261292,1138.808350 
	C328.870758,1132.553833 338.473999,1126.289673 349.232239,1119.276733 
	C350.628662,1121.154907 351.806671,1123.224976 353.432281,1124.846191 
	C363.470551,1134.857178 374.700531,1142.997314 388.768402,1146.406372 
	C409.182861,1151.353271 425.817474,1141.380371 428.462494,1121.834839 
	C429.355530,1115.235718 428.485809,1108.179077 427.243164,1101.552490 
	C424.047119,1084.509277 416.102814,1069.269531 407.547180,1053.480835 
M1092.645386,1138.789795 
	C1094.990845,1144.475830 1099.457642,1147.487671 1105.383179,1147.641724 
	C1129.610718,1148.271118 1148.652466,1136.452393 1166.263916,1121.567871 
	C1167.405518,1120.603027 1167.299683,1118.162354 1167.774170,1116.408325 
	C1165.866089,1116.578369 1163.588623,1116.138550 1162.117310,1117.029663 
	C1157.145874,1120.041016 1152.633301,1123.817383 1147.630737,1126.768188 
	C1136.348267,1133.423096 1124.536865,1138.723633 1111.003052,1138.263794 
	C1103.006836,1137.992188 1099.627930,1134.573364 1099.014404,1126.582031 
	C1098.460938,1119.374756 1100.292603,1112.740723 1103.640991,1106.435791 
	C1110.350708,1093.801025 1120.324585,1084.111206 1131.500488,1075.502197 
	C1139.537964,1069.310913 1147.722412,1063.298584 1155.553467,1056.856323 
	C1159.278320,1053.792114 1158.175659,1049.707520 1153.509644,1048.208618 
	C1151.168091,1047.456421 1148.616943,1047.347900 1146.156372,1046.976562 
	C1141.724487,1046.307739 1137.157715,1046.118530 1132.887451,1044.892944 
	C1126.948853,1043.188477 1124.519165,1038.538330 1125.539185,1032.480591 
	C1126.781372,1025.103760 1135.764526,1016.741455 1143.168335,1016.137329 
	C1147.148804,1015.812561 1151.136841,1015.572205 1155.124023,1015.338989 
	C1159.871094,1015.061340 1163.909180,1016.062439 1166.765625,1020.497620 
	C1167.544189,1021.706360 1170.291992,1022.652527 1171.644043,1022.211243 
	C1173.080322,1021.742432 1174.649170,1019.595825 1174.905518,1017.982483 
	C1175.708496,1012.928589 1172.164795,1008.356750 1166.007935,1007.147400 
	C1150.274658,1004.056885 1135.653442,1006.900879 1123.644897,1017.904175 
	C1110.291504,1030.139893 1114.846436,1048.029785 1132.231934,1053.216431 
	C1135.655273,1054.237671 1139.138794,1055.057983 1143.437378,1056.193726 
	C1139.963745,1058.796875 1137.208374,1060.889893 1134.424072,1062.943726 
	C1118.419434,1074.749512 1103.021240,1086.830200 1094.488159,1105.912476 
	C1089.628662,1116.779541 1088.131226,1127.042603 1092.645386,1138.789795 
M515.082520,1097.725830 
	C518.073547,1096.862671 521.420166,1095.719360 520.382446,1091.897705 
	C519.293457,1087.887451 515.755554,1089.038940 512.842957,1089.812988 
	C511.084961,1090.280396 509.424347,1091.167725 507.651154,1091.515259 
	C499.496063,1093.113770 491.729614,1095.286987 483.776215,1089.146484 
	C475.525574,1082.776489 464.498108,1084.093506 455.848724,1091.650879 
	C442.151184,1103.619019 436.088959,1119.337524 436.096039,1137.258911 
	C436.099457,1145.842529 440.310577,1148.944580 448.967834,1148.351440 
	C471.835266,1146.784790 490.375366,1129.522339 493.173187,1106.850708 
	C493.604065,1103.359131 495.012817,1101.987305 498.232086,1101.388550 
	C503.617584,1100.386841 508.945435,1099.074951 515.082520,1097.725830 
M1359.740356,1070.411987 
	C1362.028564,1073.686279 1364.826050,1072.605225 1366.751099,1070.497925 
	C1368.011230,1069.118530 1367.998779,1066.576782 1368.556274,1064.555542 
	C1366.255615,1064.189941 1363.492310,1062.896973 1361.796265,1063.742920 
	C1360.359131,1064.459839 1360.155640,1067.650024 1359.740356,1070.411987 
z" />
  <path fill="#FEEAFB" opacity="1.000000" stroke="none" d="
M930.664124,703.000244 
	C930.664124,738.815247 930.664124,774.130249 930.664124,810.215576 
	C941.089294,810.215576 951.349304,810.215576 961.812500,810.215576 
	C961.812500,818.096680 961.812500,825.213562 961.812500,832.684937 
	C905.698181,832.684937 849.472595,832.684937 792.911133,832.684937 
	C792.911133,825.616150 792.911133,818.400146 792.911133,810.383667 
	C803.163025,810.383667 813.395081,810.383667 823.803833,810.383667 
	C823.803833,681.867065 823.803833,554.146362 823.803833,425.786865 
	C813.533325,425.786865 803.427979,425.786865 792.951294,425.786865 
	C792.951294,417.940125 792.951294,410.718628 792.951294,403.226685 
	C849.136169,403.226685 905.354614,403.226685 961.801086,403.226685 
	C961.801086,410.415802 961.801086,417.520294 961.801086,425.460968 
	C951.651794,425.460968 941.437256,425.460968 930.664124,425.460968 
	C930.664124,518.362488 930.664124,610.431335 930.664124,703.000244 
z" />
  <path fill="#FEEAFB" opacity="1.000000" stroke="none" d="
M1051.174927,402.962585 
	C1101.273315,402.962311 1150.885864,402.962311 1200.711060,402.962311 
	C1200.711060,410.500854 1200.711060,417.610962 1200.711060,425.966583 
	C1190.459595,425.966583 1180.189697,425.836670 1169.928467,426.075928 
	C1167.869995,426.123932 1165.336670,427.050079 1163.877075,428.457672 
	C1117.581787,473.103149 1071.392334,517.858093 1025.189941,562.599915 
	C1024.833008,562.945618 1024.522827,563.339722 1023.945496,563.985535 
	C1024.525513,565.000061 1025.093140,566.135742 1025.787720,567.187622 
	C1078.498169,647.007324 1131.233032,726.810791 1183.872437,806.677307 
	C1185.559326,809.236511 1187.302246,810.150330 1190.284546,810.089539 
	C1199.235229,809.906738 1208.192017,810.023682 1217.380371,810.023682 
	C1217.380371,818.192261 1217.380371,825.282654 1217.380371,832.706421 
	C1151.095337,832.706421 1084.864258,832.706421 1018.288330,832.706421 
	C1018.288330,825.681824 1018.288330,818.445557 1018.288330,810.556885 
	C1028.270630,810.556885 1038.369385,810.556885 1049.630615,810.556885 
	C1048.146118,807.958008 1047.221191,806.316895 1046.276123,804.687622 
	C1011.909851,745.443604 977.603760,686.164429 943.044189,627.033386 
	C940.552551,622.770203 941.244934,620.231323 943.817505,616.626404 
	C988.288696,554.310364 1032.638794,491.907990 1077.014282,429.523590 
	C1077.667725,428.604950 1078.304810,427.674713 1079.578247,425.847809 
	C1068.753296,425.847809 1058.714478,425.847809 1048.038574,425.847809 
	C1048.038574,418.341248 1047.965698,411.596893 1048.154297,404.859833 
	C1048.172485,404.204376 1049.805542,403.594116 1051.174927,402.962585 
z" />
  <path fill="#F98400" opacity="1.000000" stroke="none" d="
M634.620850,1066.423828 
	C632.416382,1073.339600 630.123718,1079.886841 627.854492,1086.367310 
	C630.124084,1087.184082 632.642700,1087.629517 634.565186,1088.945801 
	C635.830078,1089.811768 636.987549,1092.027466 636.807434,1093.465088 
	C636.638611,1094.812500 634.805908,1096.704346 633.423889,1096.989136 
	C630.599304,1097.570679 627.529053,1097.610107 624.664429,1097.179199 
	C621.193970,1096.657104 618.687866,1097.524414 617.224243,1100.651489 
	C612.028198,1111.753174 610.252502,1123.526611 611.189392,1135.642944 
	C611.290466,1136.949707 614.299438,1138.989868 616.023071,1139.057007 
	C626.933167,1139.481201 635.962341,1134.401855 644.212646,1128.020142 
	C650.791870,1122.931030 655.705566,1116.766724 657.585022,1108.012207 
	C658.797119,1102.366211 662.220032,1097.024292 665.463745,1092.078247 
	C666.593567,1090.355591 670.601624,1088.978149 672.510315,1089.655273 
	C675.701294,1090.787354 674.914917,1094.141357 673.782837,1096.978516 
	C669.601685,1107.456665 665.389160,1117.925415 661.451416,1128.495605 
	C660.389648,1131.345581 660.257568,1134.541748 659.411987,1139.137939 
	C663.546997,1137.019409 666.415222,1135.824097 668.998901,1134.181274 
	C685.115112,1123.933472 698.799866,1111.342163 707.899353,1094.184448 
	C708.721069,1092.635132 712.038696,1091.269775 713.830078,1091.632324 
	C716.759155,1092.225464 717.670288,1095.027344 716.571777,1098.028931 
	C714.972473,1102.398682 712.625977,1106.636597 711.877380,1111.143188 
	C710.719666,1118.112183 710.377441,1125.254761 710.217896,1132.335571 
	C710.136780,1135.939331 712.370300,1137.767822 716.203552,1136.226196 
	C717.889343,1135.548218 719.807861,1135.144409 721.190613,1134.065308 
	C733.997742,1124.070679 742.835815,1112.013184 741.051270,1094.636108 
	C740.932373,1093.478149 740.602478,1092.189941 740.959473,1091.167969 
	C741.623718,1089.266846 742.299377,1086.819214 743.773926,1085.926758 
	C744.942444,1085.219360 748.016541,1085.866821 749.027527,1086.999268 
	C753.755249,1092.294678 759.799438,1092.796997 765.983276,1091.860596 
	C769.646912,1091.306030 773.142456,1089.448120 776.628662,1087.975220 
	C779.461304,1086.778442 782.620728,1084.991211 784.380493,1088.765503 
	C786.186462,1092.638794 783.004089,1094.890869 779.935181,1095.716309 
	C772.293945,1097.771973 764.555969,1099.613159 756.746094,1100.830688 
	C753.243103,1101.376709 751.714539,1102.182007 750.846680,1105.877075 
	C747.058411,1122.006348 738.427185,1134.837402 723.555786,1142.804565 
	C720.540466,1144.419922 717.054504,1145.398926 713.666077,1146.024902 
	C706.678345,1147.315796 703.896606,1145.839233 701.625977,1138.947388 
	C699.982605,1133.959473 699.390320,1128.625244 698.204651,1122.836670 
	C697.106506,1123.738892 696.094238,1124.629517 695.022522,1125.441528 
	C686.557434,1131.855225 678.178711,1138.390625 669.543762,1144.567627 
	C667.190308,1146.251221 664.141113,1147.241089 661.263000,1147.857666 
	C653.889282,1149.437622 650.223633,1146.369385 649.891174,1138.781738 
	C649.843445,1137.692627 649.884583,1136.599487 649.884583,1136.595581 
	C640.536499,1140.243530 631.277222,1144.110596 621.817078,1147.400391 
	C618.805908,1148.447632 615.215759,1148.408691 611.968933,1148.083740 
	C604.394775,1147.325439 600.797424,1143.088745 600.712280,1135.565430 
	C600.684814,1133.139404 600.707947,1130.712891 600.707947,1127.380371 
	C582.580383,1137.854248 563.839966,1143.762939 544.188721,1147.496948 
	C544.394287,1148.216919 544.379944,1148.797974 544.662476,1149.066040 
	C557.933411,1161.654175 555.948303,1176.397095 549.624268,1190.973267 
	C545.269043,1201.011475 537.489258,1208.841797 528.433655,1215.100830 
	C524.914917,1217.532837 521.020264,1220.503540 516.526489,1218.009888 
	C512.253601,1215.639038 512.450317,1210.911621 512.748718,1206.817139 
	C513.836853,1191.884277 514.991272,1176.948608 516.576721,1162.062500 
	C517.650085,1151.985596 518.551941,1141.736084 521.192139,1132.014893 
	C525.671631,1115.521973 531.045105,1099.232544 536.917419,1083.177368 
	C539.138245,1077.105591 543.466736,1071.675415 547.496338,1066.464600 
	C548.906250,1064.641479 552.873901,1062.995850 554.632202,1063.737549 
	C556.473938,1064.514404 557.966125,1068.226074 558.051086,1070.708374 
	C558.495239,1083.688599 554.295349,1095.678833 548.519531,1107.006348 
	C545.143738,1113.626831 540.419189,1119.551025 536.440308,1125.875977 
	C533.958008,1129.821899 531.734680,1133.930664 528.772339,1139.040771 
	C541.393250,1139.306274 552.093018,1137.806152 562.295837,1134.370605 
	C574.084839,1130.401001 585.580811,1125.525024 597.050720,1120.679565 
	C598.948364,1119.877808 600.666687,1117.439819 601.420776,1115.375366 
	C603.505188,1109.668335 605.035583,1103.759155 607.080322,1096.946045 
	C594.492554,1098.760864 582.009338,1101.258057 569.826233,1097.169556 
	C569.739868,1096.663452 569.653503,1096.157349 569.567139,1095.651245 
	C571.425720,1094.796387 573.208130,1093.489380 575.155396,1093.161621 
	C585.965210,1091.342651 596.786255,1089.513062 607.668884,1088.251465 
	C610.912659,1087.875610 612.685669,1086.916992 614.215881,1084.144165 
	C617.590637,1078.029053 621.207031,1072.039185 624.925354,1066.124390 
	C628.076721,1061.111572 632.022888,1061.170532 634.620850,1066.423828 
M532.755798,1201.266724 
	C537.021973,1193.279175 542.322266,1185.657104 545.305786,1177.216187 
	C549.512207,1165.315308 545.092773,1157.502441 533.735657,1153.084229 
	C528.071411,1150.880737 526.945374,1151.545288 526.168274,1157.873657 
	C525.135803,1166.281006 524.054443,1174.687256 523.285400,1183.120483 
	C522.567749,1190.990234 522.231079,1198.894653 521.726746,1206.783691 
	C522.221375,1207.167847 522.716064,1207.552002 523.210693,1207.936157 
	C526.227783,1205.886108 529.244873,1203.836060 532.755798,1201.266724 
M544.949707,1087.536743 
	C543.210632,1092.637573 541.471558,1097.738525 539.732422,1102.839355 
	C540.258240,1103.013672 540.784058,1103.188110 541.309875,1103.362427 
	C543.789124,1096.635254 546.268311,1089.907959 548.747559,1083.180664 
	C548.300720,1082.997681 547.853821,1082.814575 547.406982,1082.631470 
	C546.670532,1084.031982 545.934021,1085.432373 544.949707,1087.536743 
M539.492859,1105.468506 
	C539.492859,1105.468506 539.475586,1105.511230 539.492859,1105.468506 
z" />
  <path fill="#F98400" opacity="1.000000" stroke="none" d="
M1360.427734,1092.974121 
	C1364.828979,1092.216919 1366.578003,1094.480347 1366.470825,1097.948364 
	C1366.364502,1101.387329 1365.770752,1104.884766 1364.847778,1108.205688 
	C1363.783691,1112.034668 1361.944336,1115.643066 1360.781006,1119.450928 
	C1359.817017,1122.606445 1358.923340,1125.893799 1358.780396,1129.156982 
	C1358.650024,1132.135254 1359.569336,1135.159546 1360.203125,1139.329102 
	C1363.072144,1138.765625 1366.526367,1138.624023 1369.539185,1137.397705 
	C1379.786743,1133.227173 1389.064575,1127.428223 1396.788208,1119.393677 
	C1399.229370,1116.854370 1402.240723,1116.651123 1404.202759,1118.896118 
	C1405.300171,1120.151489 1405.220337,1124.444702 1404.080078,1125.337402 
	C1392.059570,1134.749756 1380.250244,1144.812500 1364.679077,1147.920166 
	C1355.135864,1149.825073 1352.520630,1147.961792 1348.992920,1138.167480 
	C1335.195435,1139.619141 1322.179565,1143.614868 1310.448364,1151.244995 
	C1308.955200,1152.216064 1307.951904,1154.791138 1307.735229,1156.736084 
	C1306.334839,1169.312622 1305.257446,1181.924438 1303.991089,1194.516479 
	C1302.993652,1204.434937 1300.034790,1213.756470 1294.541992,1222.098389 
	C1292.648560,1224.973755 1290.153564,1227.566650 1287.531738,1229.821411 
	C1283.798096,1233.032349 1278.728516,1234.932861 1274.635986,1232.438232 
	C1272.066040,1230.871582 1270.409302,1226.058838 1270.226318,1222.602661 
	C1268.847534,1196.580444 1276.601196,1173.305542 1293.494263,1153.531006 
	C1297.326050,1149.045532 1299.627197,1144.813721 1300.061768,1139.187622 
	C1300.341064,1135.572266 1300.871826,1131.976318 1301.400269,1127.420532 
	C1297.882080,1129.029663 1295.282104,1130.403931 1292.549683,1131.422485 
	C1288.985962,1132.750488 1285.393311,1134.326660 1281.678711,1134.860352 
	C1272.218018,1136.219360 1269.219849,1134.449585 1264.496094,1125.885864 
	C1253.705078,1137.486572 1240.500366,1144.708374 1224.904907,1147.326538 
	C1217.331787,1148.597778 1212.764282,1145.294189 1213.260986,1137.716187 
	C1213.898193,1127.993164 1216.023193,1118.366821 1217.527588,1108.702026 
	C1218.283325,1103.846802 1219.083984,1098.998657 1219.864380,1094.147217 
	C1219.329346,1093.733276 1218.794312,1093.319336 1218.259399,1092.905273 
	C1215.517578,1094.685669 1212.290527,1096.010986 1210.118896,1098.326050 
	C1201.338257,1107.686890 1196.553467,1119.122681 1194.071167,1131.581909 
	C1193.226440,1135.822021 1192.484741,1140.091431 1191.923096,1144.377075 
	C1191.253906,1149.483154 1187.493286,1148.381836 1184.312378,1148.328979 
	C1180.659790,1148.268433 1180.554321,1145.765991 1181.011841,1143.055542 
	C1182.313721,1135.344360 1183.799805,1127.660522 1184.924072,1119.923950 
	C1186.478516,1109.226685 1187.763916,1098.490479 1189.175659,1087.772339 
	C1189.534668,1085.045166 1189.847290,1082.376953 1193.814209,1082.938965 
	C1197.228882,1083.422852 1198.812866,1085.103149 1198.618164,1088.602661 
	C1198.472900,1091.213623 1198.589478,1093.839111 1198.589478,1097.620605 
	C1202.475342,1094.227539 1205.520508,1091.518921 1208.624146,1088.878662 
	C1210.262939,1087.484619 1211.882080,1086.003296 1213.722656,1084.923706 
	C1217.728760,1082.574097 1221.953369,1082.109253 1225.976440,1084.838013 
	C1230.093994,1087.630859 1230.871704,1091.864990 1229.970459,1096.376587 
	C1228.406982,1104.203491 1226.287109,1111.929321 1224.976440,1119.793579 
	C1224.004761,1125.624268 1223.945190,1131.607056 1223.390259,1138.654053 
	C1228.065308,1137.520020 1231.809937,1136.986450 1235.275024,1135.699707 
	C1244.964355,1132.101318 1252.656860,1125.592407 1260.360107,1118.830078 
	C1265.038208,1114.723511 1267.009033,1109.743896 1269.601685,1104.568726 
	C1273.437134,1096.912964 1277.729614,1089.256348 1283.121948,1082.657959 
	C1294.551147,1068.672485 1318.239014,1078.437622 1324.041382,1089.060181 
	C1324.791992,1090.433960 1324.861328,1092.728394 1324.259888,1094.190674 
	C1322.368774,1098.787720 1320.165894,1103.277344 1317.795532,1107.652466 
	C1312.342163,1117.717651 1310.606201,1128.585083 1310.103149,1139.040649 
	C1322.685059,1135.468506 1335.181763,1131.920532 1347.570190,1128.403442 
	C1350.226807,1119.170288 1353.082153,1108.823364 1356.255859,1098.575195 
	C1356.888428,1096.532471 1358.738037,1094.866455 1360.427734,1092.974121 
M1306.740234,1107.171753 
	C1308.311523,1104.057007 1309.701538,1100.832153 1311.505493,1097.858521 
	C1313.280762,1094.931885 1312.565918,1092.635132 1310.652954,1090.199219 
	C1306.349487,1084.719238 1300.106689,1084.158936 1293.475586,1089.313354 
	C1284.212402,1096.513672 1277.501099,1105.754272 1273.404053,1116.756104 
	C1270.797852,1123.754517 1274.326782,1127.687744 1281.799072,1126.508057 
	C1293.361694,1124.683105 1300.471924,1117.058472 1306.740234,1107.171753 
M1283.975586,1187.538696 
	C1281.075562,1199.138062 1276.469727,1210.529663 1279.179932,1223.031372 
	C1290.293945,1219.431152 1300.376465,1183.861816 1295.201416,1163.200562 
	C1291.524048,1171.057617 1287.846680,1178.914673 1283.975586,1187.538696 
z" />
  <path fill="#F98400" opacity="1.000000" stroke="none" d="
M1583.951660,1089.861206 
	C1583.279053,1104.395996 1575.752563,1114.570068 1565.457520,1123.266968 
	C1563.637695,1124.804077 1561.635620,1126.767456 1560.983032,1128.917969 
	C1559.339844,1134.333984 1562.543213,1139.255493 1568.331421,1139.643799 
	C1582.799805,1140.614502 1596.198608,1138.261963 1606.049683,1125.935791 
	C1607.841675,1123.693481 1611.038696,1122.608521 1613.467407,1120.826050 
	C1614.698608,1119.922485 1616.142456,1118.845337 1616.668091,1117.520508 
	C1619.572876,1110.197388 1623.203857,1103.050171 1622.332642,1094.720825 
	C1622.135742,1092.838257 1622.793335,1090.730835 1623.524414,1088.915039 
	C1625.024658,1085.188843 1626.879517,1082.837158 1631.728760,1085.372437 
	C1636.393677,1087.811279 1641.760376,1088.866943 1646.688843,1090.852905 
	C1653.801514,1093.718872 1655.574463,1096.913330 1654.486450,1104.462158 
	C1653.087280,1114.171265 1651.530273,1123.857544 1650.101074,1133.562500 
	C1649.911987,1134.846191 1650.075195,1136.181763 1650.075195,1138.699951 
	C1653.337280,1137.966919 1656.429810,1137.960083 1658.766602,1136.628052 
	C1669.109863,1130.732056 1679.190063,1124.376343 1689.475830,1118.376221 
	C1691.823486,1117.006592 1694.609619,1116.388672 1697.194092,1115.424683 
	C1697.688843,1115.989380 1698.183594,1116.553955 1698.678223,1117.118530 
	C1697.589233,1119.299805 1697.008179,1122.035034 1695.330078,1123.574219 
	C1682.855713,1135.015503 1668.266113,1142.792603 1651.998169,1147.334106 
	C1647.209229,1148.671021 1643.963013,1146.011230 1641.992310,1141.869019 
	C1639.675049,1136.998291 1639.414062,1131.938354 1641.373657,1126.841309 
	C1643.223511,1122.030518 1645.047363,1117.209351 1646.944580,1112.417236 
	C1648.171753,1109.317139 1647.838623,1107.173462 1644.280884,1105.792358 
	C1640.270874,1104.235840 1636.475708,1102.125732 1632.050537,1099.998291 
	C1630.563477,1102.431885 1629.026733,1104.751221 1627.705688,1107.187378 
	C1627.001587,1108.485962 1626.554810,1109.957153 1626.188477,1111.400391 
	C1623.179321,1123.257324 1617.818359,1132.853027 1605.964355,1138.660645 
	C1594.860107,1144.100952 1583.817017,1148.660156 1571.324707,1148.320923 
	C1561.047485,1148.041748 1552.499390,1144.882324 1550.330078,1132.533813 
	C1539.661255,1142.671387 1527.119507,1146.842407 1513.525146,1148.231201 
	C1510.089600,1148.582153 1506.508057,1148.325928 1503.081787,1147.787720 
	C1494.254150,1146.401245 1488.804565,1141.330200 1487.676392,1132.772339 
	C1479.947388,1136.716187 1472.433228,1140.906494 1464.605591,1144.393066 
	C1460.729370,1146.119507 1456.324097,1146.907349 1452.072021,1147.481445 
	C1446.081055,1148.290039 1441.774170,1145.237793 1442.057373,1139.273193 
	C1442.495605,1130.050537 1444.171387,1120.876953 1445.513672,1111.710693 
	C1446.373535,1105.838257 1447.577515,1100.016113 1448.682861,1093.861084 
	C1443.191284,1093.255127 1440.360840,1096.186890 1437.834839,1099.117798 
	C1429.012817,1109.353394 1424.243774,1121.463745 1422.016479,1134.670410 
	C1421.490479,1137.788696 1420.778687,1140.889893 1420.486572,1144.030029 
	C1419.981689,1149.454102 1416.090942,1148.513550 1412.710205,1148.286621 
	C1408.725464,1148.018921 1409.240845,1145.362793 1409.685791,1142.460938 
	C1412.509399,1124.052002 1415.242798,1105.628784 1417.875732,1087.191650 
	C1418.250854,1084.565430 1418.672363,1082.591187 1421.937744,1082.953125 
	C1424.830566,1083.273682 1427.182129,1084.037964 1427.073364,1087.665283 
	C1426.985107,1090.614624 1427.055420,1093.568481 1427.055420,1097.873535 
	C1431.177002,1094.194214 1434.380859,1091.199341 1437.739136,1088.388794 
	C1439.633301,1086.803589 1441.638306,1085.221313 1443.846680,1084.169678 
	C1447.717041,1082.326538 1451.711426,1082.474365 1455.132446,1085.288330 
	C1458.518433,1088.073608 1459.553345,1091.881104 1458.657227,1096.108398 
	C1457.312012,1102.453979 1455.551514,1108.722412 1454.457397,1115.107544 
	C1453.204224,1122.420898 1452.486328,1129.825928 1451.374390,1138.442261 
	C1455.689331,1137.627930 1458.782715,1137.374756 1461.655762,1136.442627 
	C1472.011719,1133.083008 1480.729980,1127.046387 1488.140259,1119.173096 
	C1489.524536,1117.702393 1490.321655,1115.487427 1490.889038,1113.474731 
	C1492.783691,1106.753540 1494.154663,1099.873413 1496.282349,1093.232422 
	C1498.805786,1085.356201 1502.987671,1078.630493 1511.786377,1076.424072 
	C1518.192383,1074.817627 1520.651611,1076.858887 1521.173462,1083.447021 
	C1522.489258,1100.061768 1515.487305,1112.736206 1503.023682,1123.032104 
	C1501.059570,1124.654541 1498.875977,1126.733398 1498.179199,1129.022949 
	C1496.552002,1134.369507 1499.889160,1139.249878 1505.696533,1139.642456 
	C1520.184204,1140.621704 1533.570557,1138.204102 1543.369507,1125.847046 
	C1545.095581,1123.670532 1548.084473,1122.533203 1550.309570,1120.697144 
	C1551.315918,1119.866821 1552.246582,1118.600342 1552.584106,1117.360840 
	C1554.549683,1110.141968 1555.683838,1102.621826 1558.371704,1095.697510 
	C1560.590454,1089.981445 1564.471558,1084.884399 1567.854004,1079.667236 
	C1568.585083,1078.539551 1570.264404,1077.908569 1571.625977,1077.327148 
	C1580.191284,1073.669312 1583.945557,1076.138916 1584.006836,1085.397827 
	C1584.015625,1086.730957 1583.984497,1088.064453 1583.951660,1089.861206 
M1506.181152,1095.818481 
	C1504.365845,1100.664673 1502.550415,1105.510742 1500.735107,1110.356934 
	C1508.903687,1105.581177 1512.129517,1098.367554 1512.740479,1088.387817 
	C1510.228516,1091.196655 1508.422485,1093.216064 1506.181152,1095.818481 
M1567.233154,1108.750977 
	C1573.446533,1101.752930 1575.708496,1095.841309 1574.292358,1089.855225 
	C1567.567505,1095.266235 1565.333984,1102.641357 1564.111938,1110.636841 
	C1564.593506,1110.580078 1564.952881,1110.638550 1565.176514,1110.491211 
	C1565.724121,1110.130371 1566.208984,1109.674316 1567.233154,1108.750977 
z" />
  <path fill="#F98400" opacity="1.000000" stroke="none" d="
M908.642822,1147.428955 
	C899.454590,1149.228027 895.004822,1136.833008 897.640930,1128.729004 
	C899.387146,1123.361084 901.513489,1118.110352 903.623474,1112.869141 
	C905.067627,1109.281616 904.374268,1107.023682 900.539551,1105.545288 
	C896.705383,1104.067017 893.082642,1102.040283 888.341370,1099.760864 
	C886.471802,1103.838989 884.392578,1107.557617 883.027710,1111.522339 
	C880.214905,1119.693481 878.176514,1128.269409 870.636292,1133.682617 
	C869.220642,1134.698975 867.012634,1134.589233 865.187561,1135.065430 
	C863.809265,1135.425049 862.411560,1135.778564 861.103271,1136.327271 
	C853.915833,1139.342163 846.947266,1143.043823 839.540039,1145.333618 
	C826.075317,1149.496094 821.103577,1145.939087 819.460815,1131.539062 
	C816.075195,1134.055176 813.185242,1136.817017 809.782654,1138.601318 
	C803.081787,1142.115112 796.340210,1145.910522 789.155884,1148.035645 
	C782.755371,1149.928833 779.532227,1146.584961 779.363098,1139.848022 
	C779.164368,1131.935425 777.803406,1123.732910 779.370911,1116.157837 
	C783.325073,1097.048096 799.993530,1082.688477 818.605896,1080.641602 
	C827.589050,1079.653687 833.076538,1083.102905 833.956665,1092.173706 
	C834.614380,1098.953003 833.366272,1105.975952 832.485474,1112.828613 
	C831.640869,1119.400024 830.035156,1125.870239 829.038269,1132.426636 
	C828.468933,1136.171509 830.315125,1138.139648 834.254639,1137.559082 
	C836.375366,1137.246460 838.636108,1137.131348 840.548157,1136.283203 
	C849.819092,1132.171021 859.036133,1127.929199 868.162598,1123.507080 
	C869.828613,1122.699829 871.451294,1121.080566 872.298035,1119.428345 
	C876.225403,1111.765015 879.505615,1103.913940 879.172852,1094.954712 
	C879.079224,1092.435303 880.096130,1089.739502 881.124023,1087.348267 
	C882.393433,1084.394897 884.302124,1083.369629 887.839905,1085.074707 
	C892.751892,1087.442139 898.163757,1088.746704 903.259216,1090.764893 
	C910.351074,1093.573608 912.131042,1096.282959 911.193604,1103.749023 
	C910.261841,1111.169434 908.643311,1118.501465 907.592041,1125.909912 
	C907.038513,1129.810547 907.053528,1133.791748 906.790222,1138.090088 
	C914.439636,1138.761597 920.224060,1135.023315 925.817688,1131.954590 
	C933.205383,1127.901489 939.987061,1122.704956 946.828674,1117.724487 
	C948.388306,1116.589111 949.588440,1114.463745 950.158386,1112.556152 
	C952.013306,1106.347412 953.209229,1099.934692 955.201233,1093.775879 
	C957.727356,1085.965820 961.597839,1079.025269 970.348877,1076.592773 
	C977.285583,1074.664429 979.892029,1076.690796 980.372192,1083.835815 
	C981.502686,1100.656860 974.143799,1113.330811 961.499084,1123.625610 
	C959.675354,1125.110352 957.764282,1127.222168 957.206665,1129.382690 
	C955.833801,1134.702271 959.338501,1139.390503 965.186523,1139.714966 
	C979.679932,1140.519287 993.016968,1138.002075 1002.767029,1125.602539 
	C1004.459595,1123.449951 1007.758362,1122.560303 1010.315308,1121.087280 
	C1010.173645,1124.343140 1010.768738,1127.878540 1009.670654,1130.771362 
	C1008.690308,1133.354126 1006.173828,1135.732178 1003.758606,1137.327759 
	C991.618530,1145.347778 978.342163,1149.627686 963.626892,1147.985596 
	C952.414429,1146.734497 947.188416,1140.816895 946.862610,1128.869995 
	C934.633240,1136.239380 922.862732,1143.980469 908.642822,1147.428955 
M806.876282,1131.430054 
	C818.354309,1124.508423 822.632812,1113.699341 823.008362,1100.963379 
	C823.067505,1098.958984 822.223267,1095.611084 820.970459,1095.155029 
	C818.243652,1094.162842 813.619751,1093.274658 812.165833,1094.732422 
	C803.478638,1103.442383 791.581360,1109.992065 790.737671,1124.512451 
	C790.456299,1129.354370 789.144165,1134.136475 788.206116,1139.501221 
	C795.982971,1139.083496 801.060120,1135.282715 806.876282,1131.430054 
M963.528870,1099.203613 
	C962.518738,1102.735840 961.508606,1106.267944 960.498474,1109.800171 
	C968.349854,1105.034790 971.301575,1098.037842 970.703064,1089.087158 
	C968.423096,1092.231689 966.143127,1095.376221 963.528870,1099.203613 
z" />
  <path fill="#F88300" opacity="1.000000" stroke="none" d="
M407.736664,1053.832397 
	C416.102814,1069.269531 424.047119,1084.509277 427.243164,1101.552490 
	C428.485809,1108.179077 429.355530,1115.235718 428.462494,1121.834839 
	C425.817474,1141.380371 409.182861,1151.353271 388.768402,1146.406372 
	C374.700531,1142.997314 363.470551,1134.857178 353.432281,1124.846191 
	C351.806671,1123.224976 350.628662,1121.154907 349.232239,1119.276733 
	C338.473999,1126.289673 328.870758,1132.553833 319.261292,1138.808350 
	C318.006836,1139.624878 316.752380,1140.971924 315.440552,1141.045044 
	C313.497925,1141.153442 311.503937,1140.341553 309.531738,1139.921509 
	C309.970886,1137.996948 309.761475,1135.231812 310.967560,1134.301392 
	C315.029266,1131.167969 319.597137,1128.691406 323.966339,1125.955566 
	C330.549713,1121.833130 337.128754,1117.703979 344.024811,1113.380127 
	C339.636719,1104.436401 335.622253,1096.277100 331.635071,1088.104492 
	C330.984833,1086.771729 330.192200,1085.430908 329.916504,1084.006470 
	C328.878113,1078.641235 332.056183,1075.779663 337.097626,1077.898315 
	C345.520813,1081.438354 353.826477,1085.280151 362.038055,1089.289062 
	C364.816437,1090.645508 366.637909,1090.918945 368.807831,1088.281250 
	C376.610260,1078.796875 384.674316,1069.528076 392.503937,1060.065552 
	C395.806488,1056.074097 396.654541,1051.873535 394.062164,1046.756104 
	C390.388428,1039.504272 387.343994,1031.915405 384.337433,1024.348633 
	C381.108643,1016.222412 380.676941,1007.706543 383.123047,999.384766 
	C384.149414,995.893066 386.444000,992.389709 389.073517,989.826965 
	C396.519440,982.569946 406.793304,984.598267 411.365479,993.947144 
	C415.313782,1002.020264 415.982788,1010.744568 414.405151,1019.340454 
	C412.733002,1028.450806 409.801819,1037.324097 407.669861,1046.359985 
	C407.137177,1048.617554 407.562286,1051.101074 407.736664,1053.832397 
M357.069214,1112.996582 
	C357.082520,1113.761841 356.769989,1114.823486 357.156891,1115.249146 
	C366.929413,1126.000000 378.039673,1135.183105 392.389679,1138.589233 
	C407.869476,1142.263428 418.530518,1133.868042 418.676331,1117.902100 
	C418.747620,1110.096191 417.186157,1101.989258 414.802460,1094.516724 
	C411.581116,1084.418457 406.869598,1074.794312 402.761353,1064.981934 
	C402.290680,1063.857666 401.588837,1062.830078 401.563782,1062.784790 
	C386.864594,1079.346436 372.196899,1095.872559 357.069214,1112.996582 
M406.354462,1016.420837 
	C405.882019,1011.291504 405.681854,1006.116638 404.834259,1001.050049 
	C404.332184,998.048767 403.498016,994.639343 399.096069,994.767700 
	C394.743225,994.894653 392.098877,997.300598 391.407227,1001.280762 
	C388.965363,1015.331909 394.174164,1027.463867 400.740631,1039.187500 
	C401.375427,1039.203369 402.010223,1039.219238 402.644989,1039.235107 
	C403.878357,1031.951294 405.111725,1024.667480 406.354462,1016.420837 
M352.468872,1094.001343 
	C349.495300,1093.232788 346.521759,1092.464233 342.026123,1091.302246 
	C345.368225,1097.245728 347.910065,1101.766113 351.098877,1107.437012 
	C354.532410,1103.354126 357.337463,1100.018555 360.333282,1096.456055 
	C358.166290,1095.756714 355.707092,1094.963013 352.468872,1094.001343 
z" />
  <path fill="#F88300" opacity="1.000000" stroke="none" d="
M1092.470093,1138.454346 
	C1088.131226,1127.042603 1089.628662,1116.779541 1094.488159,1105.912476 
	C1103.021240,1086.830200 1118.419434,1074.749512 1134.424072,1062.943726 
	C1137.208374,1060.889893 1139.963745,1058.796875 1143.437378,1056.193726 
	C1139.138794,1055.057983 1135.655273,1054.237671 1132.231934,1053.216431 
	C1114.846436,1048.029785 1110.291504,1030.139893 1123.644897,1017.904175 
	C1135.653442,1006.900879 1150.274658,1004.056885 1166.007935,1007.147400 
	C1172.164795,1008.356750 1175.708496,1012.928589 1174.905518,1017.982483 
	C1174.649170,1019.595825 1173.080322,1021.742432 1171.644043,1022.211243 
	C1170.291992,1022.652527 1167.544189,1021.706360 1166.765625,1020.497620 
	C1163.909180,1016.062439 1159.871094,1015.061340 1155.124023,1015.338989 
	C1151.136841,1015.572205 1147.148804,1015.812561 1143.168335,1016.137329 
	C1135.764526,1016.741455 1126.781372,1025.103760 1125.539185,1032.480591 
	C1124.519165,1038.538330 1126.948853,1043.188477 1132.887451,1044.892944 
	C1137.157715,1046.118530 1141.724487,1046.307739 1146.156372,1046.976562 
	C1148.616943,1047.347900 1151.168091,1047.456421 1153.509644,1048.208618 
	C1158.175659,1049.707520 1159.278320,1053.792114 1155.553467,1056.856323 
	C1147.722412,1063.298584 1139.537964,1069.310913 1131.500488,1075.502197 
	C1120.324585,1084.111206 1110.350708,1093.801025 1103.640991,1106.435791 
	C1100.292603,1112.740723 1098.460938,1119.374756 1099.014404,1126.582031 
	C1099.627930,1134.573364 1103.006836,1137.992188 1111.003052,1138.263794 
	C1124.536865,1138.723633 1136.348267,1133.423096 1147.630737,1126.768188 
	C1152.633301,1123.817383 1157.145874,1120.041016 1162.117310,1117.029663 
	C1163.588623,1116.138550 1165.866089,1116.578369 1167.774170,1116.408203 
	C1167.299683,1118.162354 1167.405518,1120.603027 1166.263916,1121.567871 
	C1148.652466,1136.452393 1129.610718,1148.271118 1105.383179,1147.641724 
	C1099.457642,1147.487671 1094.990845,1144.475830 1092.470093,1138.454346 
z" />
  <path fill="#F98400" opacity="1.000000" stroke="none" d="
M514.690063,1097.809692 
	C508.945435,1099.074951 503.617584,1100.386841 498.232086,1101.388550 
	C495.012817,1101.987305 493.604065,1103.359131 493.173187,1106.850708 
	C490.375366,1129.522339 471.835266,1146.784790 448.967834,1148.351440 
	C440.310577,1148.944580 436.099457,1145.842529 436.096039,1137.258911 
	C436.088959,1119.337524 442.151184,1103.619019 455.848724,1091.650879 
	C464.498108,1084.093506 475.525574,1082.776489 483.776215,1089.146484 
	C491.729614,1095.286987 499.496063,1093.113770 507.651154,1091.515259 
	C509.424347,1091.167725 511.084961,1090.280396 512.842957,1089.812988 
	C515.755554,1089.038940 519.293457,1087.887451 520.382446,1091.897705 
	C521.420166,1095.719360 518.073547,1096.862671 514.690063,1097.809692 
M446.580292,1132.506836 
	C446.683380,1134.602539 446.786438,1136.698242 446.884857,1138.699463 
	C464.614227,1140.940063 485.785095,1121.653198 485.077484,1104.225586 
	C479.371277,1103.532715 473.637024,1102.765259 467.883636,1102.188965 
	C466.483551,1102.048706 464.430389,1101.997925 463.677307,1102.820801 
	C456.018951,1111.190308 445.154358,1117.741943 446.580292,1132.506836 
z" />
  <path fill="#F88300" opacity="1.000000" stroke="none" d="
M1359.573242,1070.078857 
	C1360.155640,1067.650024 1360.359131,1064.459839 1361.796265,1063.742920 
	C1363.492310,1062.896973 1366.255615,1064.189941 1368.556152,1064.555542 
	C1367.998779,1066.576782 1368.011230,1069.118530 1366.751099,1070.497925 
	C1364.826050,1072.605225 1362.028564,1073.686279 1359.573242,1070.078857 
z" />
  <path fill="#040200" opacity="1.000000" stroke="none" d="
M532.508911,1201.526367 
	C529.244873,1203.836060 526.227783,1205.886108 523.210693,1207.936157 
	C522.716064,1207.552002 522.221375,1207.167847 521.726746,1206.783691 
	C522.231079,1198.894653 522.567749,1190.990234 523.285400,1183.120483 
	C524.054443,1174.687256 525.135803,1166.281006 526.168274,1157.873657 
	C526.945374,1151.545288 528.071411,1150.880737 533.735657,1153.084229 
	C545.092773,1157.502441 549.512207,1165.315308 545.305786,1177.216187 
	C542.322266,1185.657104 537.021973,1193.279175 532.508911,1201.526367 
z" />
  <path fill="#0F0800" opacity="1.000000" stroke="none" d="
M545.073608,1087.184814 
	C545.934021,1085.432373 546.670532,1084.031982 547.406982,1082.631470 
	C547.853821,1082.814575 548.300720,1082.997681 548.747559,1083.180664 
	C546.268311,1089.907959 543.789124,1096.635254 541.309875,1103.362427 
	C540.784058,1103.188110 540.258240,1103.013672 539.732422,1102.839355 
	C541.471558,1097.738525 543.210632,1092.637573 545.073608,1087.184814 
z" />
  <path fill="#0F0800" opacity="1.000000" stroke="none" d="
M539.484253,1105.489868 
	C539.475586,1105.511230 539.492859,1105.468506 539.484253,1105.489868 
z" />
  <path fill="#040200" opacity="1.000000" stroke="none" d="
M1306.531006,1107.471558 
	C1300.471924,1117.058472 1293.361694,1124.683105 1281.799072,1126.508057 
	C1274.326782,1127.687744 1270.797852,1123.754517 1273.404053,1116.756104 
	C1277.501099,1105.754272 1284.212402,1096.513672 1293.475586,1089.313354 
	C1300.106689,1084.158936 1306.349487,1084.719238 1310.652954,1090.199219 
	C1312.565918,1092.635132 1313.280762,1094.931885 1311.505493,1097.858521 
	C1309.701538,1100.832153 1308.311523,1104.057007 1306.531006,1107.471558 
z" />
  <path fill="#070400" opacity="1.000000" stroke="none" d="
M1284.072510,1187.155273 
	C1287.846680,1178.914673 1291.524048,1171.057617 1295.201416,1163.200562 
	C1300.376465,1183.861816 1290.293945,1219.431152 1279.179932,1223.031372 
	C1276.469727,1210.529663 1281.075562,1199.138062 1284.072510,1187.155273 
z" />
  <path fill="#0F0800" opacity="1.000000" stroke="none" d="
M1506.398804,1095.527100 
	C1508.422485,1093.216064 1510.228516,1091.196655 1512.740479,1088.387817 
	C1512.129517,1098.367554 1508.903687,1105.581177 1500.735107,1110.356934 
	C1502.550415,1105.510742 1504.365845,1100.664673 1506.398804,1095.527100 
z" />
  <path fill="#0F0800" opacity="1.000000" stroke="none" d="
M1566.976074,1109.003784 
	C1566.208984,1109.674316 1565.724121,1110.130371 1565.176514,1110.491211 
	C1564.952881,1110.638550 1564.593506,1110.580078 1564.111938,1110.636841 
	C1565.333984,1102.641357 1567.567505,1095.266235 1574.292358,1089.855225 
	C1575.708496,1095.841309 1573.446533,1101.752930 1566.976074,1109.003784 
z" />
  <path fill="#040200" opacity="1.000000" stroke="none" d="
M806.588135,1131.647217 
	C801.060120,1135.282715 795.982971,1139.083496 788.206116,1139.501221 
	C789.144165,1134.136475 790.456299,1129.354370 790.737671,1124.512451 
	C791.581360,1109.992065 803.478638,1103.442383 812.165833,1094.732422 
	C813.619751,1093.274658 818.243652,1094.162842 820.970459,1095.155029 
	C822.223267,1095.611084 823.067505,1098.958984 823.008362,1100.963379 
	C822.632812,1113.699341 818.354309,1124.508423 806.588135,1131.647217 
z" />
  <path fill="#0F0800" opacity="1.000000" stroke="none" d="
M963.696045,1098.862183 
	C966.143127,1095.376221 968.423096,1092.231689 970.703064,1089.087158 
	C971.301575,1098.037842 968.349854,1105.034790 960.498474,1109.800171 
	C961.508606,1106.267944 962.518738,1102.735840 963.696045,1098.862183 
z" />
  <path fill="#020100" opacity="1.000000" stroke="none" d="
M357.299194,1112.697632 
	C372.196899,1095.872559 386.864594,1079.346436 401.563782,1062.784790 
	C401.588837,1062.830078 402.290680,1063.857666 402.761353,1064.981934 
	C406.869598,1074.794312 411.581116,1084.418457 414.802460,1094.516724 
	C417.186157,1101.989258 418.747620,1110.096191 418.676331,1117.902100 
	C418.530518,1133.868042 407.869476,1142.263428 392.389679,1138.589233 
	C378.039673,1135.183105 366.929413,1126.000000 357.156891,1115.249146 
	C356.769989,1114.823486 357.082520,1113.761841 357.299194,1112.697632 
z" />
  <path fill="#040200" opacity="1.000000" stroke="none" d="
M406.349792,1016.902222 
	C405.111725,1024.667480 403.878357,1031.951294 402.644989,1039.235107 
	C402.010223,1039.219238 401.375427,1039.203369 400.740631,1039.187500 
	C394.174164,1027.463867 388.965363,1015.331909 391.407227,1001.280762 
	C392.098877,997.300598 394.743225,994.894653 399.096069,994.767700 
	C403.498016,994.639343 404.332184,998.048767 404.834259,1001.050049 
	C405.681854,1006.116638 405.882019,1011.291504 406.349792,1016.902222 
z" />
  <path fill="#0F0800" opacity="1.000000" stroke="none" d="
M352.858398,1094.085205 
	C355.707092,1094.963013 358.166290,1095.756714 360.333282,1096.456055 
	C357.337463,1100.018555 354.532410,1103.354126 351.098877,1107.437012 
	C347.910065,1101.766113 345.368225,1097.245728 342.026123,1091.302246 
	C346.521759,1092.464233 349.495300,1093.232788 352.858398,1094.085205 
z" />
  <path fill="#040200" opacity="1.000000" stroke="none" d="
M446.614075,1132.024414 
	C445.154358,1117.741943 456.018951,1111.190308 463.677307,1102.820801 
	C464.430389,1101.997925 466.483551,1102.048706 467.883636,1102.188965 
	C473.637024,1102.765259 479.371277,1103.532715 485.077484,1104.225586 
	C485.785095,1121.653198 464.614227,1140.940063 446.884857,1138.699463 
	C446.786438,1136.698242 446.683380,1134.602539 446.614075,1132.024414 
z" />
</svg>